<svg version="1.1"  xmlns="http://www.w3.org/2000/svg" xmlns:xlink="http://www.w3.org/1999/xlink" x="0px" y="0px" width="32" height="32" viewBox="0 0 48 48" enable-background="new 0 0 48 48" xml:space="preserve" preserveAspectRatio="none" style="fill: rgb(255, 255, 255);" viewbox="0 0 32 32">
<g>
	<path d="M24,12c-3.31,0-6,2.69-6,6s2.69,6,6,6c3.31,0,6-2.69,6-6S27.31,12,24,12z" style="fill: rgb(255, 255, 255);"></path>
	<path d="M24,4c-7.73,0-14,6.27-14,14c0,7.73,12,26,14,26s14-18.27,14-26C38,10.27,31.73,4,24,4z M24,26c-4.41,0-8-3.59-8-8
		s3.59-8,8-8s8,3.59,8,8S28.41,26,24,26z" style="fill: rgb(255, 255, 255);"></path>
</g>
</svg>