<svg xmlns="http://www.w3.org/2000/svg" xmlns:xlink="http://www.w3.org/1999/xlink" version="1.1"  x="0px" y="0px" width="32" height="32" viewBox="0 0 24 24" style="enable-background:new 0 0 24 24;" xml:space="preserve" preserveAspectRatio="none" viewbox="0 0 32 32">

<rect class="st2" width="24" height="24" style="fill:none;;"></rect>
<path id="585341864_shock_x5F_color_focus" class="stshockcolor" d="M22,15c0,3.31-2.69,6-6,6c-1.54,0-2.94-0.58-4-1.54C10.94,20.42,9.54,21,8,21  c-3.31,0-6-2.69-6-6c0-2.62,1.68-4.85,4.02-5.66C6,9.23,6,9.12,6,9c0-3.31,2.69-6,6-6c3.31,0,6,2.69,6,6c0,0.12,0,0.23-0.02,0.34  C20.32,10.15,22,12.38,22,15z" style="fill: rgb(117, 162, 216);" data-st="fill:#AB47BC;;"></path>
<path class="st1" d="M14,15c0,1.77-0.77,3.37-2,4.46c-1.23-1.09-2-2.69-2-4.46c0-0.12,0-0.23,0.02-0.34C10.64,14.88,11.31,15,12,15  s1.36-0.12,1.98-0.34C14,14.77,14,14.88,14,15z M8,9C7.31,9,6.64,9.12,6.02,9.34c0.13,2.47,1.77,4.54,4,5.32  c0.08-1.641,0.83-3.1,1.98-4.12C10.94,9.58,9.54,9,8,9z M16,9c-1.54,0-2.94,0.58-4,1.54c1.15,1.02,1.9,2.479,1.98,4.12  c2.229-0.78,3.869-2.85,4-5.32C17.36,9.12,16.69,9,16,9z" style="opacity:0.2;fill:#FFFFFF;;"></path>
<path class="st3" d="M13.98,14.66C13.36,14.88,12.69,15,12,15s-1.36-0.12-1.98-0.34c0.08-1.641,0.83-3.1,1.98-4.12  C13.15,11.56,13.9,13.02,13.98,14.66z" style="opacity:0.4;fill:#FFFFFF;;"></path>
</svg>