<svg xmlns="http://www.w3.org/2000/svg" xmlns:xlink="http://www.w3.org/1999/xlink" version="1.1"  x="0px" y="0px" width="32" height="32" viewBox="0 0 24 24" style="enable-background:new 0 0 24 24;" xml:space="preserve" preserveAspectRatio="none" viewbox="0 0 32 32">

<rect class="st1" width="24" height="24" style="fill:none;;"></rect>
<path id="584345992_shock_x5F_color" class="stshockcolor" d="M20,2C20,2,6,2,4,2S2,4,2,4s0,14,0,16s2,2,2,2s14,0,16,0s2-2,2-2s0-14,0-16S20,2,20,2z   M20,20H4V4h16V20z M18,10v8h-8v-4H6V6h8v4H18z" style="fill:#7986CB;;" data-st="fill:#7986CB;;"></path>
<rect x="10" y="10" class="st0" width="8" height="8" style="opacity:0.3;fill:#FFFFFF;;"></rect>
</svg>