<svg xmlns="http://www.w3.org/2000/svg" xmlns:xlink="http://www.w3.org/1999/xlink" version="1.1" x="0px" y="0px" width="32" height="32" viewBox="0 0 64 64" style="enable-background:new 0 0 64 64;" xml:space="preserve" viewbox="0 0 32 32">

<g>
	<defs>
		<path id="573570870_SVGID_1_" d="M32,6C17.641,6,6,17.641,6,32s11.641,26,26,26s26-11.641,26-26S46.359,6,32,6z M27.439,48.121    c-0.579,0.812-1.5,1.258-2.444,1.258c-0.444,0-0.893-0.099-1.314-0.304c-3.797-1.853-6.909-4.963-8.762-8.757    c-0.643-1.317-0.24-2.906,0.953-3.758c1.193-0.853,2.828-0.716,3.864,0.319l7.381,7.377    C28.154,45.293,28.291,46.927,27.439,48.121z M49.081,40.316c-1.854,3.797-4.966,6.908-8.766,8.76    c-0.421,0.206-0.869,0.304-1.313,0.304c-0.945,0-1.866-0.446-2.445-1.259c-0.851-1.193-0.714-2.827,0.322-3.863l7.384-7.379    c1.038-1.035,2.671-1.171,3.864-0.319C49.32,37.41,49.724,38.999,49.081,40.316z M46.391,28c-0.007-0.001-0.014,0-0.021,0    c-0.514,0-1.031-0.132-1.499-0.402C40.649,25.16,37.646,24,32,24s-8.649,1.16-12.87,3.598c-1.143,0.659-2.582,0.496-3.547-0.404    c-0.964-0.9-1.228-2.324-0.649-3.51C18.15,17.094,24.689,13,32,13c7.194,0,13.642,3.964,16.911,10.372    C49.215,23.84,49.391,24.4,49.391,25C49.391,26.657,48.048,28,46.391,28z"></path>
	</defs>
	<use xlink:href="#573570870_SVGID_1_" class="stshockcolor" style="fill: rgb(33, 150, 243); overflow: visible;"></use>
	<clipPath id="573570870_SVGID_2_">
		<use xlink:href="#573570870_SVGID_1_" style="overflow:visible;"></use>
	</clipPath>
	<g class="st3" style="clip-path:url(#573570870_SVGID_2_);;">
		<path class="st5" d="M48.455,41.5c-5.247,9.087-16.868,12.201-25.955,6.954l19-32.909C50.588,20.792,53.701,32.412,48.455,41.5z" style="fill-opacity:0.08;;"></path>
		<g>
			<circle class="stshockcolor" cx="32" cy="29" r="10" style="fill: rgb(33, 150, 243);"></circle>
			<circle class="st2" cx="32" cy="29" r="10" style="opacity:0.1;fill:#7D1CC7;;"></circle>
			<circle class="st1" cx="32" cy="29" r="10" style="opacity:0.15;;"></circle>
		</g>
		<path class="st0" d="M13,32c0-10.494,8.506-19,19-19c3.462,0,6.698,0.94,9.493,2.558L47.012,6H6v52h10.989l5.518-9.558    C16.83,45.157,13,39.032,13,32z" style="opacity:0.3;fill:#FFFFFF;;"></path>
	</g>
</g>
</svg>