<svg xmlns="http://www.w3.org/2000/svg" xmlns:xlink="http://www.w3.org/1999/xlink" version="1.1"  x="0px" y="0px" width="32" height="32" viewBox="0 0 24 24" style="enable-background:new 0 0 24 24;" xml:space="preserve" viewbox="0 0 32 32">

<rect class="st2" width="24" height="24" style="fill:none;;"></rect>
<path class="st1" d="M20,5v14c0,1.66-3.58,3-8,3s-8-1.34-8-3V5c0-1.66,3.58-3,8-3S20,3.34,20,5z" style="fill:#546E7A;;"></path>
<path id="58944877_shock_x5F_color" class="stshockcolor" d="M20,6v2c0,1.66-3.58,3-8,3S4,9.66,4,8V6c0,1.66,3.58,3,8,3S20,7.66,20,6z M12,17  c-4.42,0-8-1.34-8-3v2c0,1.66,3.58,3,8,3s8-1.34,8-3v-2C20,15.66,16.42,17,12,17z" style="fill:#4DD0E1;;" data-st="fill:#4DD0E1;;"></path>
</svg>