<svg xmlns="http://www.w3.org/2000/svg" xmlns:xlink="http://www.w3.org/1999/xlink" version="1.1" x="0px" y="0px" width="32" height="32" viewBox="0 0 24 24" style="enable-background:new 0 0 24 24;" xml:space="preserve" preserveAspectRatio="none" viewbox="0 0 32 32">

<rect class="st2" width="24" height="24" style="fill:none;;"></rect>
<path id="58844772_shock_x5F_color" class="stshockcolor" d="M20,4c0,0.33,0,0.44,0,0.44v15.12c0,0,0,0.11,0,0.44c0,2-2,2-2,2S8,22,6,22s-2-2-2-2V4  c0,0,0-2,2-2s12,0,12,0S20,2,20,4z" style="fill: rgb(244, 67, 54);" data-st="fill:#7E57C2;;"></path>
<path class="st4" d="M12,9v10H4V5h2v4h2v5l2.86-5H12z M10.56,5L9.6,7H12V5H10.56z" style="opacity:0.4;fill:#FFFFFF;;"></path>
<path class="st3" d="M18,8c0,0.55-0.45,1-1,1h-6.14L12,7h5C17.55,7,18,7.45,18,8z" style="opacity:0.7;fill:#FFFFFF;;"></path>
<path class="st1" d="M20,5v14h-8V9h5c0.55,0,1-0.45,1-1s-0.45-1-1-1h-5V5H20z" style="opacity:0.2;fill:#FFFFFF;;"></path>
</svg>