<svg xmlns="http://www.w3.org/2000/svg" xmlns:xlink="http://www.w3.org/1999/xlink" version="1.1"  x="0px" y="0px" width="32" height="32" viewBox="0 0 40 40" enable-background="new 0 0 40 40" xml:space="preserve" style="fill: rgb(135, 206, 250);" viewbox="0 0 32 32">
<g id="553251779_Shape_5_xA0_Clipping_Path_1_">
	<g>
		<path d="M28,19l-6.52-0.458L21,10c0-0.553-0.447-1-1-1c-0.552,0-1,0.447-1,1l-0.488,8.675C18.197,19.029,18,19.489,18,20    c0,1.104,0.896,2,2,2c0.522,0,0.993-0.205,1.35-0.532L28,21c0.553,0,1-0.447,1-1S28.553,19,28,19z M20,2C10.059,2,2,10.059,2,20    s8.059,18,18,18s18-8.059,18-18S29.941,2,20,2z M21,33.951V32h-2v1.951C12.069,33.46,6.542,27.933,6.05,21H8v-2H6.05    C6.542,12.068,12.069,6.54,19,6.048V8h2V6.05C27.933,6.542,33.46,12.069,33.951,19H32v2h1.949    C33.458,27.933,27.931,33.46,21,33.951z" style="fill: rgb(135, 206, 250);"></path>
	</g>
</g>
</svg>