<svg xmlns="http://www.w3.org/2000/svg" xmlns:xlink="http://www.w3.org/1999/xlink" version="1.1"  x="0px" y="0px" width="32" height="32" viewBox="0 0 24 24" style="fill: rgb(3, 90, 161);" xml:space="preserve" preserveAspectRatio="none" viewbox="0 0 32 32">
<path d="M21,16.51V20c0,0.55-0.45,1-1,1C10.61,21,3,13.39,3,4c0-0.55,0.45-1,1-1h3.5c0.55,0,1,0.45,1,1c0,1.25,0.2,2.45,0.57,3.57  C9.18,7.92,9.1,8.31,8.82,8.59l-2.2,2.2v0.01c1.44,2.811,3.74,5.11,6.55,6.561c0.01,0.01,0.03,0.02,0.04,0.02l2.2-2.2  c0.27-0.27,0.67-0.359,1.02-0.239c1.12,0.369,2.33,0.569,3.57,0.569C20.55,15.51,21,15.96,21,16.51z M10.59,6l3.7,3.71l1.42-1.42  L14.41,7H22V5h-7.59l1.3-1.29l-1.42-1.42L10.59,6z" style="fill: rgb(3, 90, 161);"></path>
</svg>