<svg xmlns="http://www.w3.org/2000/svg" xmlns:xlink="http://www.w3.org/1999/xlink" version="1.1"  x="0px" y="0px" width="32" height="32" viewBox="0 0 24 24" style="enable-background:new 0 0 24 24;" xml:space="preserve" preserveAspectRatio="none" viewbox="0 0 32 32">

<rect class="st1" width="24" height="24" style="fill:none;;"></rect>
<path id="58646152_shock_x5F_color" class="stshockcolor" d="M22,6c0,0,0-2-2-2H4C2,4,2,6,2,6v12c0,2,2,2,2,2h16c0,0,2,0,2-2V6z" style="fill: rgb(135, 206, 250);" data-st="fill:#FFB74D;;"></path>
<path class="st2" d="M2,6c0,0,0-2,2-2h16c0,0,2,0,2,2l-10,5L2,6z M2,18c0,2,2,2,2,2h16c2,0,2-2,2-2V8l-10,5L2,8V18z" style="opacity:0.4;fill:#FFFFFF;;"></path>
</svg>