<svg xmlns="http://www.w3.org/2000/svg" xmlns:xlink="http://www.w3.org/1999/xlink" version="1.1"  x="0px" y="0px" width="32" height="32" viewBox="0 0 24 24" style="enable-background:new 0 0 24 24;" xml:space="preserve" preserveAspectRatio="none" viewbox="0 0 32 32">

<path id="586891895_shock_x5F_color_focus" class="stshockcolor" d="M22,15v4c0,1.103-0.897,2-2,2H4c-1.103,0-2-0.897-2-2v-4h6v-4H5.5v2H4V9  c0-1.103,0.897-2,2-2h8V5H4V3h16v2h-4v2h2c1.103,0,2,0.897,2,2v6H22z" style="fill: rgb(3, 90, 161);" data-st="fill:#BDBDBD;;"></path>
<path class="st1" d="M5.5,11v2H4v-2H5.5z M2,15v4c0,1.103,0.897,2,2,2h16c1.103,0,2-0.897,2-2v-4H2z M16,5h-2v2h2V5z" style="opacity:0.4;;"></path>
</svg>