<svg xmlns="http://www.w3.org/2000/svg" xmlns:xlink="http://www.w3.org/1999/xlink" version="1.1"  x="0px" y="0px" width="32" height="32" viewBox="0 0 24 24" style="enable-background:new 0 0 24 24;" xml:space="preserve" preserveAspectRatio="none" viewbox="0 0 32 32">

<path class="st0" d="M12,16h-2v-3h2V16z" style="fill:#BDBDBD;;"></path>
<path id="585290926_shock_x5F_color_focus" class="stshockcolor" d="M18,8v14H6v-2h8v-6h-4c-1.104,0-2-0.896-2-2V8c0-1.104,0.896-2,2-2h6  C17.104,6,18,6.896,18,8z" style="fill: rgb(3, 90, 161);" data-st="fill:#BF360C;;"></path>
<path class="st0" d="M22,20H2v-2h20V20z M19,2c-1.103,0-2,0.897-2,2c0,0.277,0.057,0.541,0.159,0.781l-3.378,3.378  C13.541,8.057,13.277,8,13,8c-1.104,0-2,0.896-2,2s0.896,2,2,2s2-0.896,2-2c0-0.277-0.057-0.541-0.158-0.781l3.378-3.378  C18.46,5.943,18.724,6,19,6c1.103,0,2-0.897,2-2S20.103,2,19,2z" style="fill:#BDBDBD;;"></path>
<path class="st2" d="M14.842,9.219C14.943,9.459,15,9.723,15,10c0,1.104-0.896,2-2,2s-2-0.896-2-2s0.896-2,2-2  c0.277,0,0.541,0.057,0.781,0.159l2.151-2.152C15.956,6.006,15.977,6,16,6c0.568,0,1.074,0.243,1.436,0.625L14.842,9.219z M18,14h-4  v4h4V14z" style="opacity:0.3;;"></path>
</svg>