<svg xmlns="http://www.w3.org/2000/svg" xmlns:xlink="http://www.w3.org/1999/xlink" version="1.1"  x="0px" y="0px" width="32" height="32" viewBox="0 0 24 24" style="enable-background:new 0 0 24 24;" xml:space="preserve" preserveAspectRatio="none" viewbox="0 0 32 32">

<rect class="st2" width="24" height="24" style="fill:none;;"></rect>
<path id="583345463_shock_x5F_color" class="stshockcolor" d="M18.44,7.9L11.65,2.24c-0.43-0.36-1.06-0.3-1.41,0.12c-0.35,0.43-0.3,1.06,0.13,1.41  l3.87,3.24L4,7C3.45,7,3,7.45,3,8s0.45,1,1,1h5.58l-7.29,7.29c-0.39,0.39-0.39,1.03,0,1.42C2.49,17.9,2.74,18,3,18  s0.51-0.1,0.71-0.29l4.32-4.32C8.01,13.59,8,13.79,8,14c0,3.87,3.13,7,7,7s7-3.13,7-7C22,11.38,20.57,9.1,18.44,7.9z M15,19  c-2.76,0-5-2.24-5-5s2.24-5,5-5s5,2.24,5,5S17.76,19,15,19z" style="fill: rgb(3, 90, 161);" data-st="fill:#EF6C00;;"></path>
<circle class="st0" cx="15" cy="14" r="3" style="fill:#1976D2;;"></circle>
</svg>