<svg xmlns="http://www.w3.org/2000/svg" xmlns:xlink="http://www.w3.org/1999/xlink" version="1.1"  x="0px" y="0px" width="32" height="32" viewBox="0 0 24 24" style="enable-background:new 0 0 24 24;" xml:space="preserve" preserveAspectRatio="none" viewbox="0 0 32 32">

<rect class="st3" width="24" height="24" style="fill:none;;"></rect>
<path id="583245767_shock_x5F_color" class="stshockcolor" d="M19,3H5C3,3,3,5,3,5v16c0,0,0,2,2,2h14c2,0,2-2,2-2V5C21,3,19,3,19,3z" style="fill:#5D4037;;"></path>
<rect x="5" y="5" class="st4" width="14" height="16" style="opacity:0.7;fill:#FFFFFF;;"></rect>
<path class="st2" d="M7,8h10V5V3h-2.18C14.4,1.84,13.3,1,12,1S9.6,1.84,9.18,3H7v2V8z M12,3c0.55,0,1,0.45,1,1s-0.45,1-1,1  s-1-0.45-1-1S11.45,3,12,3z" style="fill:#FFA000;;"></path>
<circle class="st0" cx="12" cy="14" r="5" style="fill:#E53935;;"></circle>
<rect x="9" y="13" class="st5" width="6" height="2" style="opacity:0.9;fill:#F4F4F4;;"></rect>
</svg>