<svg xmlns="http://www.w3.org/2000/svg" xmlns:xlink="http://www.w3.org/1999/xlink" version="1.1" x="0px" y="0px" width="32" height="32" viewBox="0 0 24 24" style="enable-background:new 0 0 24 24;" xml:space="preserve" preserveAspectRatio="none" class="svgmask"  viewbox="0 0 32 32">

<rect class="st0" width="24" height="24" style="fill:none;;"></rect>
<path id="582245005_shock_x5F_color" class="stshockcolor" d="M21.54,14.63c0.19,0.15,0.24,0.42,0.12,0.64l-2,3.461c-0.12,0.22-0.38,0.31-0.61,0.22  l-2.49-1c-0.52,0.39-1.079,0.729-1.689,0.979l-0.38,2.65C14.46,21.82,14.25,22,14,22h-4c-0.25,0-0.46-0.18-0.49-0.42l-0.38-2.65  c-0.61-0.25-1.17-0.58-1.69-0.979l-2.49,1c-0.22,0.08-0.49,0-0.61-0.22l-2-3.461c-0.12-0.22-0.07-0.489,0.12-0.64l2.11-1.65  C4.53,12.66,4.5,12.33,4.5,12s0.03-0.66,0.07-0.98L2.46,9.37C2.27,9.22,2.21,8.95,2.34,8.73l2-3.46c0.12-0.22,0.38-0.31,0.61-0.22  l2.49,1c0.52-0.39,1.08-0.73,1.69-0.98l0.38-2.65C9.54,2.18,9.75,2,10,2h4c0.25,0,0.46,0.18,0.49,0.42l0.38,2.65  c0.61,0.25,1.17,0.58,1.689,0.98l2.49-1c0.22-0.08,0.49,0,0.61,0.22l2,3.46c0.12,0.22,0.07,0.49-0.12,0.64l-2.11,1.65  c0.04,0.32,0.07,0.64,0.07,0.98s-0.03,0.66-0.07,0.98L21.54,14.63z" style="fill:#D81B60;;" data-st="fill:#D81B60;;"></path>
<path class="st2" d="M12,22h-2c-0.25,0-0.46-0.18-0.49-0.42l-0.38-2.65c-0.61-0.25-1.17-0.58-1.69-0.979l-2.49,1  c-0.22,0.08-0.49,0-0.61-0.22l-2-3.461c-0.12-0.22-0.07-0.489,0.12-0.64l2.11-1.65C4.53,12.66,4.5,12.33,4.5,12s0.03-0.66,0.07-0.98  L2.46,9.37C2.27,9.22,2.21,8.95,2.34,8.73l2-3.46c0.12-0.22,0.38-0.31,0.61-0.22l2.49,1c0.52-0.39,1.08-0.73,1.69-0.98l0.38-2.65  C9.54,2.18,9.75,2,10,2h2V22z" style="opacity:0.1;fill:#FFFFFF;;"></path>
<rect x="10.996" y="7.757" transform="matrix(0.7071 0.7071 -0.7071 0.7071 12 -4.9706)" class="st3" width="2.008" height="8.485" style="opacity:0.9;fill:#FFFFFF;;"></rect></svg>