<svg xmlns="http://www.w3.org/2000/svg" xmlns:xlink="http://www.w3.org/1999/xlink" version="1.1" x="0px" y="0px" width="32" height="32" viewBox="0 0 64 64" style="enable-background:new 0 0 64 64;" xml:space="preserve" preserveAspectRatio="none" class="svgmask"  viewbox="0 0 32 32">

<g>
	<defs>
		<path id="573570789_SVGID_1_" d="M61,32V14H22v18h-3c0,0,0-9.73,0-16c-2,0-4,1-5,4c0,0-3.433,0-5,0c-1.567,0-2.491,1.458-3.5,3.206    c-1.419,2.458-2.677,4.637-3.5,6.062L2,37c0,1.567,0.432,2,2,2h25v-4h12l2,3h20v-2L61,32z"></path>
	</defs>
	<use xlink:href="#573570789_SVGID_1_" style="overflow:visible;fill:#939598;"></use>
	<clipPath id="573570789_SVGID_2_">
		<use xlink:href="#573570789_SVGID_1_" style="overflow:visible;"></use>
	</clipPath>
	<polygon class="st5" points="50.661,49.908 8.661,49.908 19,32 61,32  " style="opacity:0.15;clip-path:url(#573570789_SVGID_2_);;"></polygon>
	<polygon class="st5" points="6,45.908 16.915,45.908 6.576,28 -4.338,28  " style="opacity:0.15;clip-path:url(#573570789_SVGID_2_);;"></polygon>
	<g class="st3" style="clip-path:url(#573570789_SVGID_2_);;">
		<defs>
			<rect id="573570789_SVGID_3_" x="22" y="14" width="39" height="18"></rect>
		</defs>
		<use xlink:href="#573570789_SVGID_3_" class="stshockcolor" style="fill: rgb(234, 122, 47); overflow: visible;" data-st="fill:#DE7047;;overflow:visible;"></use>
		<clipPath id="573570789_SVGID_4_">
			<use xlink:href="#573570789_SVGID_3_" style="overflow:visible;"></use>
		</clipPath>
		<g class="st4" style="clip-path:url(#573570789_SVGID_4_);;">
			<polygon class="st2" points="19,32 39.533,37.145 52.96,13.883 29.339,14.092    " style="opacity:0.15;fill:#FFFFFF;;"></polygon>
		</g>
	</g>
</g>
<g>
	<circle class="st6" cx="10.5" cy="39.5" r="5.5" style="fill:#77726D;;"></circle>
	<circle class="st1" cx="10.5" cy="39.5" r="3.5" style="opacity:0.3;fill:#FFFFFF;;"></circle>
</g>
<g>
	<circle class="st6" cx="26.5" cy="39.5" r="5.5" style="fill:#77726D;;"></circle>
	<circle class="st1" cx="26.5" cy="39.5" r="3.5" style="opacity:0.3;fill:#FFFFFF;;"></circle>
</g>
<g>
	<circle class="st6" cx="44.5" cy="39.5" r="5.5" style="fill:#77726D;;"></circle>
	<circle class="st1" cx="44.5" cy="39.5" r="3.5" style="opacity:0.3;fill:#FFFFFF;;"></circle>
</g>
<g>
	<circle class="st6" cx="56.5" cy="39.5" r="5.5" style="fill:#77726D;;"></circle>
	<circle class="st1" cx="56.5" cy="39.5" r="3.5" style="opacity:0.3;fill:#FFFFFF;;"></circle>
</g>
<path class="st0" d="M14,23c0,0-1.861,0-3.167,0c-1.306,0-2.076,1.215-2.917,2.672c-0.756,1.31-1.048,1.82-1.34,2.328H14V23z" style="opacity:0.6;fill:#FFFFFF;;"></path></svg>