<svg xmlns="http://www.w3.org/2000/svg" xmlns:xlink="http://www.w3.org/1999/xlink" version="1.1"  x="0px" y="0px" width="32" height="32" viewBox="0 0 24 24" style="enable-background:new 0 0 24 24;" xml:space="preserve" preserveAspectRatio="none" viewbox="0 0 32 32">

<path class="st1" d="M0,0h24v24H0V0z" style="fill:none;;"></path>
<polygon class="st3" points="22,20 22,22 2,22 2,2 4,2 4,20 " style="fill:#455A64;;"></polygon>
<path id="585341932_shock_x5F_color" class="stshockcolor" d="M18,14l4,4h-8L18,14z M18,8l-4-4h8L18,8z M12.59,10L4,18.58V20h1.42l7.99-8H22v-2H12.59z" style="fill:#D81B60;;" data-st="fill:#D81B60;;"></path>
<polygon class="st0" points="22,10 22,12 13.41,12 5.42,20 4,20 4,18.58 12.59,10 " style="opacity:0.2;fill:#FFFFFF;;"></polygon>
</svg>