<svg xmlns="http://www.w3.org/2000/svg" xmlns:xlink="http://www.w3.org/1999/xlink" version="1.1"  x="0px" y="0px" width="32" height="32" viewBox="0 0 64 64" style="enable-background:new 0 0 64 64;" xml:space="preserve" preserveAspectRatio="none" viewbox="0 0 32 32">

<g>
	<g>
		
			<rect x="39.829" y="36.441" transform="matrix(0.707 -0.7072 0.7072 0.707 -17.8997 43.2221)" class="stshockcolor" width="6.775" height="13.547" style="fill: rgb(170, 170, 170);" data-st="fill:#93C1CF;;"></rect>
		
			<rect x="39.829" y="36.441" transform="matrix(0.707 -0.7072 0.7072 0.707 -17.8997 43.2221)" class="st4" width="6.775" height="13.547" style="opacity:0.15;;"></rect>
	</g>
	<g>
		<defs>
			<path id="57129499_SVGID_1__focus" d="M47.913,25.911c0,12.15-9.85,22-22,22s-22-9.85-22-22s9.85-22,22-22S47.913,13.761,47.913,25.911z      M25.913,9.911c-8.836,0-16,7.164-16,16s7.164,16,16,16s16-7.164,16-16S34.749,9.911,25.913,9.911z"></path>
		</defs>
		<use xlink:href="#57129499_SVGID_1__focus" class="stshockcolor" style="overflow: visible; fill: rgb(170, 170, 170);" data-st="fill:#93C1CF;;overflow:visible;"></use>
		<clipPath id="57129499_SVGID_2__focus">
			<use xlink:href="#57129499_SVGID_1__focus" style="overflow:visible;"></use>
		</clipPath>
		<g class="st2" style="clip-path:url(#57129499_SVGID_2__focus);;">
			<g>
				<rect x="25.913" y="3.911" class="st0" width="22" height="44.241" style="opacity:0.3;fill:#FFFFFF;;"></rect>
			</g>
		</g>
	</g>
	<path class="st1" d="M60.462,53.038L60.5,53L46.058,41.267l-4.79,4.79L53,60.5l0.038-0.038C53.988,61.412,55.301,62,56.75,62   c2.899,0,5.25-2.351,5.25-5.25C62,55.301,61.412,53.988,60.462,53.038z" style="fill:#4F4F4F;;"></path>
</g>
</svg>